<svg width="128" height="128" viewBox="0 0 128 128" fill="none" xmlns="http://www.w3.org/2000/svg">
<g clip-path="url(#clip0_528_2)">
<path d="M46.5339 78.4821C45.5555 78.9832 44.4205 79.0836 43.3692 78.7623C42.318 78.4409 41.4331 77.723 40.902 76.7606L40.6268 76.1526L28.9917 50.5656C28.9434 50.256 28.9434 49.9408 28.9917 49.6312C28.9916 49.352 29.0474 49.0757 29.1558 48.8183C29.2641 48.561 29.4229 48.328 29.6227 48.133C29.8225 47.938 30.0592 47.7849 30.3191 47.6828C30.5789 47.5807 30.8566 47.5316 31.1357 47.5384C31.5903 47.5289 32.0339 47.6782 32.3901 47.9608L46.3419 57.7335C47.3762 58.4259 48.5917 58.7977 49.8363 58.8023C50.5865 58.8064 51.3302 58.6629 52.0251 58.3799L116.325 29.5802C109.731 22.2966 101.65 16.513 92.6281 12.6201C83.6067 8.72709 73.8549 6.81538 64.0314 7.01404C28.6653 7.01404 0 30.8858 0 60.5687C0.207216 68.5648 2.32556 76.3952 6.17795 83.4052C10.0303 90.4152 15.5048 96.4012 22.1438 100.863C22.8502 101.384 23.3774 102.111 23.6526 102.945C23.9277 103.778 23.9372 104.676 23.6798 105.515L20.7998 116.402C20.6247 116.897 20.515 117.414 20.4734 117.938C20.4673 118.22 20.5184 118.501 20.6237 118.763C20.7289 119.025 20.8861 119.263 21.0859 119.463C21.2856 119.663 21.5237 119.82 21.7858 119.925C22.0479 120.03 22.3286 120.081 22.611 120.075C23.0403 120.052 23.4576 119.924 23.827 119.704L37.7788 111.608C38.8028 110.981 39.974 110.642 41.1708 110.635C41.8108 110.635 42.438 110.725 43.0396 110.911C49.8363 112.831 56.8634 113.803 63.929 113.791C99.2886 113.791 127.999 89.9252 127.999 60.4791C128.063 51.6963 125.626 43.0767 120.972 35.6282L47.0459 78.2005L46.5339 78.4821Z" fill="#00C800"/>
</g>
<defs>
<clipPath id="clip0_528_2">
<rect width="128" height="128" fill="white"/>
</clipPath>
</defs>
</svg>
